<svg xmlns="http://www.w3.org/2000/svg" viewBox="0 0 566.93 566.93" fill="#e6332b" xmlns:v="https://vecta.io/nano"><path d="M126.2 206.78h16.03v-17.69s0-35.65 38.42-35.93h198.72v-14.1H183.14s-55.28-2.49-56.94 43.12v24.6zm24.05 0v-14.65s-.28-27.36 30.4-28.74h198.72v14.37H184.79s-19.9.28-19.62 17.41v11.61h-14.92zm38.87 42.38v-13.64h66.7v135.24s-1.84 20.64 13.63 20.64h14.46v13.64h-17.77c-1.72-.16-13.18-1.42-20.09-11.47-4.47-6.5-4.66-13.21-4.6-15.8V249.16h-52.33zm0 25.06v-14.74h43.48v112.77s-1.47 39.06 30.22 41.64h21.09v14h-24.04c-5.15-.65-13.93-2.54-22.53-8.75-18.11-13.08-20.28-34.42-20.59-38.05V274.22h-27.63zm146.58-16.03h59.98s30.68-2.21 30.68-30.68v-20.73h14.37v28.47s-3.32 33.17-39.8 37.86H350.9v92.87h-15.2V258.19zm-7.18 107.79h-16.31V235.52h72.69s18.24 2.76 18.24-12.71v-16.03h14.37v22.66s-1.11 20.45-23.22 20.45h-65.78v116.09z"/></svg>